# xmcd CD database file
#
# Track frame offsets:
#	150
#	13248
#	26661
#	42717
#	56051
#	69827
#	90158
#	102496
#	115989
#	132005
#	144893
#	156949
#	169601
#	181849
#	197418
#	209022
#	222285
#
# Disc length: 3104 seconds
#
# Revision: 0
# Processed by: cddbd v1.5.2PL0 Copyright (c) Steve Scherf et al.
# Submitted via: CDex 1.51
#
DISCID=ed0c1e11
DTITLE=Various Artist - Social Dance - Cubano
DYEAR=1900
DGENRE=Salsa
TTITLE0=Yerbero Moderno - Nestor Mii, Celia Cruz, Sonora Matancera
TTITLE1=Moliendo Café - Rolando Laserie, Ismael Rivera, Cortijo y su Combo
TTITLE2=Bruca Manigua - A. Rodriguez, Barroso y la Orquesta Sensación
TTITLE3=Bodas de Oro - Electo Rosell, Violines de Pego
TTITLE4=El Manisero - Moises Simos, Cachao y su Orquesta
TTITLE5=Tres Lindas Cubanas - A. Ma Romeu, Cachao y su Orquesta
TTITLE6=Rico Vacilón - R. Ruiz, Orquesta Sensación
TTITLE7=Dolor y Pena - Evelio Landa, Benny Moré
TTITLE8=A buscar Camorones - Cachao y su Orquesta
TTITLE9=Juan Pescao - Cachao y su Orquesta
TTITLE10=Suena tu Bongo - Parmenio Salazar, Roberto Faz y su Conjunto
TTITLE11=Ritmo, Tambo y Flores - José vargas, Celia cruz, Sonora Matancera
TTITLE12=Floresta - O. López, Cachao y su Orquesta
TTITLE13=Pensamiento - Orquesta Riverside
TTITLE14=Oriente cuna Florida - E. Ponciano, Roberto Faz y su Conjunto
TTITLE15=Oye Simon - Hilario Ariza, Orquesta Riverside
TTITLE16=Que rico Mambo - Perez Prado, Ramón Márquez y su Orquesta
EXTD=
EXTT0=
EXTT1=
EXTT2=
EXTT3=
EXTT4=
EXTT5=
EXTT6=
EXTT7=
EXTT8=
EXTT9=
EXTT10=
EXTT11=
EXTT12=
EXTT13=
EXTT14=
EXTT15=
EXTT16=
PLAYORDER=
